<?xml version="1.0" encoding="UTF-8" standalone="no"?>
<!DOCTYPE svg PUBLIC "-//W3C//DTD SVG 1.1//EN" "http://www.w3.org/Graphics/SVG/1.1/DTD/svg11.dtd">
<svg width="100%" height="100%" viewBox="0 0 241 62" version="1.1" xmlns="http://www.w3.org/2000/svg" xmlns:xlink="http://www.w3.org/1999/xlink" xml:space="preserve" xmlns:serif="http://www.serif.com/" style="fill-rule:evenodd;clip-rule:evenodd;stroke-linejoin:round;stroke-miterlimit:2;">
    <g>
        <path d="M71.506,3.501C79.028,3.501 82.534,7.371 82.534,13.506L82.534,22.416L74.866,22.416L74.866,14.309C74.866,11.461 73.916,10.219 71.433,10.219C69.023,10.219 68.073,11.753 68.073,14.455L68.073,19.86C68.073,23.146 70.703,24.387 74.72,26.724L75.204,27.001C79.383,29.397 82.972,31.934 82.972,38.263L82.972,46.223C82.972,53.38 79.102,57.251 71.506,57.251C63.035,57.251 59.822,53.453 59.822,46.004L59.822,36L67.855,36L67.855,45.64C67.855,48.488 68.731,50.022 71.579,50.022C74.282,50.022 75.158,48.415 75.158,45.859L75.158,39.213C75.158,35.562 72.456,34.174 68.585,31.983C64.13,29.428 60.26,26.944 60.26,20.518L60.26,14.164C60.26,7.519 63.984,3.502 71.506,3.502L71.506,3.501ZM97.358,13.506C105.245,13.506 108.678,18.106 108.678,25.336L108.678,37.386L93.486,37.386L93.486,45.128C93.486,48.779 94.581,50.313 97.43,50.313C100.132,50.313 100.935,48.56 100.935,45.493L100.935,40.893L108.676,40.893L108.676,45.566C108.676,52.431 106.12,57.178 97.356,57.178C89.616,57.251 85.964,53.234 85.964,45.274L85.964,25.483C85.964,17.742 90.346,13.506 97.357,13.506L97.358,13.506ZM229.027,13.506C236.914,13.506 240.347,18.106 240.347,25.336L240.347,37.386L225.157,37.386L225.157,45.128C225.157,48.779 226.252,50.313 229.1,50.313C231.802,50.313 232.605,48.56 232.605,45.493L232.605,40.893L240.347,40.893L240.347,45.566C240.347,52.431 237.791,57.178 229.027,57.178C221.286,57.251 217.634,53.234 217.634,45.274L217.634,25.483C217.634,17.742 222.016,13.506 229.027,13.506ZM122.918,13.579C130.368,13.579 133.873,17.012 133.873,24.022L133.873,56.521L127.811,56.521L126.789,51.628C125.62,55.279 122.919,57.105 119.194,57.105C113.497,57.105 111.16,54.038 111.16,47.538L111.16,43.229C111.16,39.724 112.037,37.606 113.79,35.926C115.542,34.32 117.587,33.662 121.166,32.421C125.109,31.033 126.351,30.303 126.351,27.308L126.351,23.876C126.351,21.101 125.328,19.933 122.991,19.933C120.581,19.933 119.413,21.247 119.413,24.023L119.413,30.376L111.891,30.376L111.891,23.73C111.891,17.45 115.542,13.58 122.918,13.58L122.918,13.579ZM164.763,13.579C172.212,13.579 175.717,17.012 175.717,24.022L175.717,56.521L169.656,56.521L168.633,51.628C167.465,55.279 164.763,57.105 161.038,57.105C155.342,57.105 153.005,54.038 153.005,47.538L153.005,43.229C153.005,39.724 153.881,37.606 155.634,35.926C157.387,34.32 159.432,33.662 163.01,32.421C166.954,31.033 168.195,30.303 168.195,27.308L168.195,23.876C168.195,21.101 167.173,19.933 164.835,19.933C162.425,19.933 161.257,21.247 161.257,24.023L161.257,30.376L153.735,30.376L153.735,23.73C153.735,17.45 157.387,13.58 164.763,13.58L164.763,13.579ZM187.255,4L187.255,18.618C188.277,15.332 190.322,13.579 193.755,13.579C199.451,13.579 202.445,17.304 202.445,26.724L202.445,43.23C202.445,53.235 199.524,57.106 193.608,57.106C189.592,57.106 187.547,54.842 186.671,51.263L185.867,56.522L179.587,56.522L179.587,4L187.255,4ZM154.831,4.158L154.831,11.461L147.967,11.461L147.967,56.521L140.079,56.521L140.079,11.46L133.215,11.46L133.215,4.158L154.831,4.158ZM213.983,4L213.983,56.52L206.242,56.52L206.242,4L213.983,4ZM126.351,34.904C125.912,35.634 125.036,36.072 123.576,36.584C121.823,37.241 120.8,37.825 120.143,38.701C119.486,39.578 119.121,40.746 119.121,42.864L119.121,47.027C119.121,49.437 120.289,50.751 122.334,50.751C124.89,50.751 126.351,48.561 126.351,45.128L126.351,34.904ZM168.195,34.904C167.757,35.634 166.881,36.072 165.42,36.584C163.667,37.241 162.645,37.825 161.988,38.701C161.33,39.578 160.965,40.746 160.965,42.864L160.965,47.027C160.965,49.437 162.134,50.751 164.178,50.751C166.735,50.751 168.195,48.561 168.195,45.128L168.195,34.904ZM190.979,20.298C188.35,20.298 187.182,22.708 187.182,26.432L187.182,44.178C187.182,48.268 188.496,50.168 190.979,50.168C193.463,50.168 194.704,48.488 194.704,43.521L194.704,26.505C194.704,22.05 193.535,20.298 190.979,20.298ZM97.431,20.225C94.655,20.225 93.487,21.905 93.487,25.629L93.487,31.69L101.155,31.69L101.155,25.41C101.155,21.831 100.205,20.225 97.431,20.225ZM229.1,20.225C226.325,20.225 225.156,21.905 225.156,25.629L225.156,31.69L232.825,31.69L232.825,25.41C232.825,21.831 231.875,20.225 229.1,20.225Z" style="fill:rgb(0,25,64);"/>
        <g transform="matrix(0.431005,0,0,0.431005,1.20025e-14,0)">
            <path d="M13.26,109.938L47.172,143.85L95.915,95.108C104.759,86.263 104.759,71.923 95.915,63.08L78.019,45.182L77.7,44.863L24.155,98.292L24.53,98.667L13.26,109.938Z" style="fill:url(#_Linear1);"/>
            <path d="M24.53,98.667L89.289,33.913L55.377,0L6.633,48.743C-2.211,57.587 -2.211,71.927 6.633,80.771L24.53,98.667Z" style="fill:rgb(255,128,0);"/>
        </g>
    </g>
    <defs>
        <linearGradient id="_Linear1" x1="0" y1="0" x2="1" y2="0" gradientUnits="userSpaceOnUse" gradientTransform="matrix(-9.4681,-27.4234,27.4234,-9.4681,57.904,91.0448)"><stop offset="0" style="stop-color:rgb(255,128,0);stop-opacity:1"/><stop offset="1" style="stop-color:rgb(236,40,55);stop-opacity:1"/></linearGradient>
    </defs>
</svg>
